<svg width="64" height="64" xmlns="http://www.w3.org/2000/svg">

 <g>
  <title>background</title>
  <rect fill="none" id="canvas_background" height="402" width="582" y="-1" x="-1"/>
 </g>
 <g>
  <title>Layer 1</title>
  <ellipse ry="17.357143" rx="16.928571" id="svg_7" cy="25.428571" cx="32.857143" stroke-opacity="null" stroke-width="null" stroke="null" fill="#333837"/>
  <path fill="#fa8e2b" id="svg_1" d="m31.258571,55.23a1,1 0 0 0 1.34,0c0.84,-0.76 20.38,-18.75 20.38,-30.5c0,-11.98 -9.44,-21.73 -21.05,-21.73s-21,9.75 -21,21.73c0,11.75 19.49,29.74 20.33,30.5zm9.86,-38.83c2.74,-1.59 4.77,1.44 4,4.63a5.12,5.12 0 0 1 -2,3.26c-2.73,1.6 -4.78,-1.43 -4,-4.62a5.18,5.18 0 0 1 2,-3.27zm-5.33,-6.31c4.74,0.08 4.74,9.69 0,9.77c-4.75,-0.08 -4.75,-9.69 0,-9.77zm-7.72,0c4.75,0.08 4.75,9.69 0,9.77c-4.74,-0.08 -4.74,-9.69 0,-9.77zm-7.31,14.2a5.12,5.12 0 0 1 -2,-3.26c-0.75,-3.19 1.28,-6.23 4,-4.63a5.18,5.18 0 0 1 2.05,3.27c0.73,3.19 -1.32,6.22 -4.05,4.62zm5.82,9.61c-3.79,0.1 -5.65,-4.9 -2.93,-7.45l4.28,-4.16a5.67,5.67 0 0 1 7.94,0l4.31,4.16c2.84,2.6 0.75,7.75 -3.14,7.45c-1.72,-0.22 -3.22,-1 -5.14,-1s-3.44,1.02 -5.32,1z"/>
  <path fill="#333837" id="svg_2" d="m43.91,49.05a1,1 0 0 0 -0.39,2c5.53,1.1 7.53,2.68 7.53,3.48c0,1.84 -7.42,4.51 -19,4.51s-19,-2.67 -19,-4.51c0,-0.8 2,-2.38 7.53,-3.48a1,1 0 0 0 0.79,-1.17a1,1 0 0 0 -1.18,-0.79c-4.17,0.83 -9.14,2.44 -9.14,5.44c-0.05,4.23 10.49,6.47 20.95,6.47s21,-2.24 21,-6.51c0.05,-3 -4.92,-4.61 -9.09,-5.44z"/>
 </g>
</svg>