<?xml version="1.0" standalone="no"?>
<!DOCTYPE svg PUBLIC "-//W3C//DTD SVG 20010904//EN"
 "http://www.w3.org/TR/2001/REC-SVG-20010904/DTD/svg10.dtd">
<svg version="1.0" xmlns="http://www.w3.org/2000/svg"
 width="1181.000000pt" height="1312.000000pt" viewBox="0 0 1181.000000 1312.000000"
 preserveAspectRatio="xMidYMid meet">

<g transform="translate(0.000000,1312.000000) scale(0.100000,-0.100000)"
fill="#000000" stroke="none">
<path d="M6174 11820 c-32 -13 -38 -40 -14 -64 16 -16 33 -21 79 -21 67 0 96
16 80 46 -21 40 -94 60 -145 39z"/>
<path d="M6447 11806 c-63 -23 -87 -56 -51 -70 30 -11 115 -6 144 9 75 39 -7
92 -93 61z"/>
<path d="M5906 11771 c-27 -43 134 -90 208 -61 35 13 33 23 -11 44 -47 22
-187 34 -197 17z"/>
<path d="M6972 11748 c-25 -31 58 -78 140 -78 77 0 90 25 31 60 -48 29 -153
39 -171 18z"/>
<path d="M7252 11740 c-19 -11 -32 -26 -29 -33 6 -20 49 -37 92 -37 58 0 83 9
91 33 16 51 -89 77 -154 37z"/>
<path d="M6248 11710 c-99 -12 -193 -48 -193 -75 0 -44 103 -58 220 -30 33 8
92 15 130 16 88 1 159 19 163 40 8 42 -157 68 -320 49z"/>
<path d="M6755 11700 c-13 -21 34 -48 106 -61 66 -12 100 -9 129 11 13 9 13
11 0 20 -43 29 -222 51 -235 30z"/>
<path d="M7545 11703 c-16 -2 -52 -11 -78 -19 -38 -13 -46 -19 -37 -29 6 -7
28 -16 49 -20 56 -9 181 25 181 50 0 12 -48 27 -74 24 -6 -1 -24 -4 -41 -6z"/>
<path d="M5785 11691 c-16 -3 -29 -11 -27 -16 4 -15 48 -24 152 -31 82 -6 97
-4 109 10 18 21 15 24 -49 36 -57 11 -137 11 -185 1z"/>
<path d="M7040 11637 c-67 -15 -80 -23 -80 -46 0 -27 55 -46 125 -44 33 1 137
4 232 5 106 2 176 7 183 14 19 19 0 42 -48 60 -62 22 -332 29 -412 11z"/>
<path d="M6925 11363 c-50 -13 -70 -57 -39 -87 24 -24 145 -22 167 2 22 25 21
34 -6 60 -23 21 -86 35 -122 25z"/>
<path d="M7174 11321 c-43 -20 -63 -49 -43 -62 21 -13 97 -20 133 -13 20 3 47
18 61 32 24 24 24 26 9 44 -23 24 -105 24 -160 -1z"/>
<path d="M6612 11322 c-25 -17 -8 -46 38 -69 79 -41 235 -24 190 20 -34 34
-199 69 -228 49z"/>
<path d="M7793 11250 c-41 -17 -25 -58 33 -88 21 -11 90 -17 147 -14 65 4 11
71 -80 98 -52 16 -69 16 -100 4z"/>
<path d="M8131 11238 c-72 -19 -105 -65 -63 -87 39 -21 115 -23 152 -4 38 20
50 52 26 72 -24 20 -77 28 -115 19z"/>
<path d="M6410 11220 c-20 -13 -13 -17 60 -36 80 -20 214 -24 231 -6 31 30
-42 51 -181 52 -52 0 -102 -4 -110 -10z"/>
<path d="M6895 11220 c-155 -23 -217 -71 -146 -113 33 -19 110 -22 181 -6 25
5 111 13 192 18 121 6 151 10 167 25 30 27 11 52 -51 71 -55 16 -249 19 -343
5z"/>
<path d="M7520 11179 c0 -46 183 -89 245 -57 l28 15 -27 18 c-39 26 -120 45
-188 45 -52 0 -58 -2 -58 -21z"/>
<path d="M8317 11146 c-26 -7 -51 -16 -55 -20 -10 -11 27 -35 66 -42 61 -12
212 33 212 63 0 17 -156 17 -223 -1z"/>
<path d="M7860 11114 c-85 -13 -127 -26 -138 -45 -16 -24 -10 -34 31 -56 27
-14 71 -16 294 -17 185 -1 265 2 273 10 20 20 1 53 -38 70 -77 32 -315 53
-422 38z"/>
<path d="M7090 10812 c-59 -10 -68 -58 -17 -94 27 -19 44 -23 109 -23 57 0 81
4 93 16 14 14 14 18 -5 41 -29 38 -125 70 -180 60z"/>
<path d="M7410 10813 c-58 -22 -90 -71 -63 -98 17 -18 127 -21 169 -5 50 19
68 64 38 94 -15 16 -110 22 -144 9z"/>
<path d="M7682 10745 c-50 -15 -92 -41 -92 -56 0 -16 65 -39 111 -39 93 0 190
58 159 95 -16 19 -117 19 -178 0z"/>
<path d="M6768 10723 c-31 -8 -19 -23 37 -49 77 -35 174 -50 225 -35 42 13 52
34 22 50 -50 27 -230 48 -284 34z"/>
<path d="M7185 10656 c-77 -12 -137 -35 -150 -56 -4 -6 -4 -22 -1 -35 10 -38
60 -46 200 -34 87 7 144 7 213 -2 156 -19 259 2 251 54 -10 69 -284 108 -513
73z"/>
<path d="M8276 10579 c-43 -34 -31 -81 27 -107 34 -15 131 -16 158 -2 42 23
12 89 -52 114 -54 22 -101 20 -133 -5z"/>
<path d="M7946 10554 c-22 -22 -20 -28 17 -61 50 -43 115 -59 183 -44 60 14
66 26 30 60 -55 51 -196 79 -230 45z"/>
<path d="M8596 10520 c-28 -11 -56 -26 -64 -34 -62 -62 155 -91 233 -31 19 14
35 34 35 44 0 42 -118 54 -204 21z"/>
<path d="M8125 10421 c-60 -15 -100 -47 -90 -73 14 -35 76 -51 230 -59 93 -5
182 -16 233 -28 142 -36 222 -21 222 38 0 50 -75 84 -255 115 -92 16 -286 20
-340 7z"/>
<path d="M8764 10411 c-60 -15 -69 -31 -29 -57 43 -28 205 -18 298 18 35 14
34 24 -4 37 -35 12 -216 13 -265 2z"/>
<path d="M6923 10244 c-79 -34 -79 -104 -1 -125 84 -22 187 7 196 56 5 25 -16
61 -45 74 -33 15 -111 13 -150 -5z"/>
<path d="M6538 10223 c-48 -12 2 -87 79 -120 53 -22 171 -11 188 18 17 27 -77
81 -170 98 -61 11 -68 12 -97 4z"/>
<path d="M7303 10199 c-54 -10 -123 -41 -146 -63 -24 -24 -8 -42 46 -52 78
-14 145 -6 207 26 50 25 91 64 78 75 -30 25 -102 31 -185 14z"/>
<path d="M7490 10083 c-19 -2 -56 -11 -82 -19 -59 -19 -64 -44 -14 -68 81 -38
314 4 333 61 9 26 -112 40 -237 26z"/>
<path d="M6727 10069 c-49 -11 -87 -32 -112 -59 l-20 -22 22 -18 c16 -12 48
-20 105 -25 152 -12 243 -26 287 -46 106 -46 252 -44 317 6 42 32 42 46 4 79
-35 29 -121 58 -241 81 -88 16 -299 19 -362 4z"/>
<path d="M7575 9841 c-68 -17 -96 -51 -80 -101 12 -38 51 -54 131 -53 84 2
109 12 118 48 17 66 -81 127 -169 106z"/>
<path d="M7940 9801 c-40 -12 -94 -43 -107 -60 -36 -48 10 -88 110 -97 66 -6
123 24 152 79 l20 38 -28 25 c-29 25 -92 31 -147 15z"/>
<path d="M5503 9689 c-46 -24 -33 -99 24 -136 49 -32 206 -20 218 17 22 68
-164 158 -242 119z"/>
<path d="M5963 9686 c-119 -38 -171 -111 -98 -142 80 -33 220 -8 259 47 56 81
-35 134 -161 95z"/>
<path d="M8155 9669 c-127 -29 -150 -71 -55 -102 48 -17 65 -18 135 -8 127 18
216 73 171 107 -23 16 -183 18 -251 3z"/>
<path d="M7467 9645 c-170 -47 -126 -124 89 -154 42 -6 97 -27 175 -66 112
-56 115 -57 184 -53 77 5 126 26 151 63 15 23 15 27 -2 56 -64 108 -425 201
-597 154z"/>
<path d="M6335 9594 c-120 -17 -245 -61 -245 -88 0 -25 76 -49 153 -49 87 1
224 43 258 79 21 22 21 26 7 40 -16 16 -113 26 -173 18z"/>
<path d="M8148 9509 c-28 -16 -22 -47 15 -65 44 -24 284 -32 341 -12 22 7 41
18 43 24 4 12 -47 34 -122 54 -51 13 -255 13 -277 -1z"/>
<path d="M5546 9495 c-109 -28 -161 -72 -122 -104 7 -6 75 -25 151 -41 75 -16
151 -39 169 -50 89 -57 139 -74 221 -75 52 0 98 7 132 18 55 19 103 57 103 81
0 26 -46 70 -103 99 -134 68 -421 105 -551 72z"/>
<path d="M6346 9431 c-115 -16 -127 -79 -19 -101 126 -27 363 20 363 70 0 29
-214 48 -344 31z"/>
<path d="M6275 9140 c-58 -23 -105 -72 -105 -112 0 -44 44 -61 146 -56 79 3
85 5 118 37 29 28 36 43 36 72 0 72 -91 99 -195 59z"/>
<path d="M6660 9055 c-70 -20 -102 -34 -138 -62 -45 -34 -40 -61 18 -91 36
-19 55 -22 99 -18 95 9 231 92 231 141 0 42 -112 58 -210 30z"/>
<path d="M4267 9035 c-66 -25 -121 -69 -137 -110 -15 -40 21 -71 94 -80 98
-13 172 12 219 72 33 45 34 77 2 108 -20 21 -33 25 -82 24 -32 0 -75 -7 -96
-14z"/>
<path d="M3740 9000 c-11 -11 -20 -32 -20 -47 0 -36 38 -89 77 -108 37 -18
143 -19 192 -2 51 18 59 37 32 80 -49 80 -229 129 -281 77z"/>
<path d="M4645 8936 c-93 -23 -181 -62 -205 -91 -17 -20 -2 -37 49 -54 80 -26
206 -9 313 44 73 36 106 69 92 93 -24 37 -121 40 -249 8z"/>
<path d="M6019 8932 c-73 -19 -113 -42 -129 -72 -15 -27 19 -61 85 -85 117
-42 152 -63 196 -115 24 -29 61 -61 81 -71 88 -45 275 -5 335 71 28 35 4 104
-55 155 -115 102 -363 158 -513 117z"/>
<path d="M6755 8876 c-27 -7 -60 -18 -72 -24 -34 -19 -29 -54 10 -77 27 -17
49 -20 137 -19 111 1 165 11 243 46 36 16 47 27 47 44 0 18 -8 25 -37 33 -51
15 -266 12 -328 -3z"/>
<path d="M3930 8800 c-99 -15 -170 -42 -213 -81 -41 -36 -42 -37 -23 -57 19
-22 83 -39 258 -66 76 -12 114 -25 183 -60 69 -36 100 -46 159 -51 164 -16
334 80 282 159 -55 85 -248 148 -491 160 -55 3 -125 1 -155 -4z"/>
<path d="M4830 8773 c-70 -11 -166 -35 -177 -45 -19 -16 -16 -53 7 -73 47 -42
291 -25 398 28 43 21 68 49 58 66 -15 24 -193 39 -286 24z"/>
<path d="M6674 8687 c-40 -35 -27 -63 39 -82 164 -47 404 -45 395 3 -9 45
-190 102 -325 102 -71 0 -85 -3 -109 -23z"/>
<path d="M4765 8426 c-101 -32 -155 -83 -155 -146 0 -29 6 -41 24 -54 60 -39
218 -28 261 18 30 33 48 81 41 110 -8 31 -51 76 -74 76 -9 0 -26 2 -37 5 -11
2 -38 -2 -60 -9z"/>
<path d="M5175 8341 c-112 -40 -195 -100 -195 -139 0 -46 99 -89 174 -76 46 7
125 44 174 82 65 50 78 117 27 140 -38 17 -122 14 -180 -7z"/>
<path d="M4526 8160 c-64 -12 -172 -65 -192 -95 -34 -52 21 -100 146 -131 89
-21 134 -47 215 -124 71 -67 86 -76 146 -85 57 -8 151 14 222 53 145 79 104
209 -99 310 -122 61 -319 94 -438 72z"/>
<path d="M5345 8141 c-95 -23 -155 -57 -155 -86 0 -18 31 -49 63 -63 91 -39
359 14 435 87 32 32 26 52 -21 70 -44 17 -242 12 -322 -8z"/>
<path d="M2918 7921 c-151 -59 -253 -217 -162 -251 37 -15 154 -12 208 4 90
27 156 104 155 181 0 78 -93 108 -201 66z"/>
<path d="M5252 7905 c-42 -35 -41 -73 2 -94 85 -40 369 -51 452 -16 65 27 38
58 -88 102 -59 21 -98 27 -203 31 l-130 5 -33 -28z"/>
<path d="M2342 7875 c-40 -17 -54 -31 -76 -72 -21 -41 -20 -48 5 -99 31 -65
86 -88 193 -82 115 8 176 43 176 102 0 106 -185 200 -298 151z"/>
<path d="M3380 7812 c-85 -23 -170 -63 -219 -103 -63 -50 -64 -73 -2 -107 117
-66 391 34 417 151 14 66 -72 92 -196 59z"/>
<path d="M1860 7674 c-66 -13 -90 -25 -90 -49 0 -68 238 -169 354 -149 78 13
151 64 144 101 -4 21 -78 59 -152 78 -56 14 -216 26 -256 19z"/>
<path d="M2647 7580 c-175 -20 -347 -70 -422 -123 -96 -68 -108 -168 -24 -201
52 -21 64 -20 263 9 189 28 276 31 407 13 158 -21 308 17 356 91 60 90 3 161
-162 197 -77 18 -318 25 -418 14z"/>
<path d="M4255 7510 c-78 -17 -135 -92 -135 -178 0 -79 40 -109 171 -127 60
-9 125 10 162 46 28 28 29 34 25 94 -5 75 -25 109 -84 141 -45 25 -96 34 -139
24z"/>
<path d="M3685 7415 c-53 -19 -75 -48 -75 -97 0 -74 91 -155 195 -172 43 -7
151 20 193 49 72 52 -47 186 -196 221 -69 17 -67 17 -117 -1z"/>
<path d="M4780 7406 c-155 -43 -284 -158 -239 -213 27 -31 100 -56 170 -56
155 0 315 141 270 239 -20 44 -105 56 -201 30z"/>
<path d="M5095 7163 c-56 -7 -210 -45 -237 -59 -15 -8 -32 -24 -39 -35 -14
-27 12 -66 62 -92 67 -36 284 -2 418 66 110 55 113 94 11 116 -48 10 -149 12
-215 4z"/>
<path d="M3950 7114 c-89 -19 -189 -71 -217 -113 -34 -50 -32 -111 5 -137 66
-50 111 -58 283 -51 173 7 226 1 398 -48 174 -49 272 -44 339 16 89 80 72 167
-47 240 -32 19 -151 63 -211 78 -136 33 -429 41 -550 15z"/>
<path d="M5141 6460 c-43 -19 -82 -52 -109 -94 -36 -56 -38 -146 -4 -194 39
-54 74 -67 187 -67 126 0 169 18 203 85 61 120 -43 265 -197 276 -31 2 -67 -1
-80 -6z"/>
<path d="M3245 6426 c-62 -20 -97 -41 -141 -88 -56 -57 -74 -97 -74 -157 0
-63 22 -86 99 -102 141 -29 251 9 300 105 49 95 29 177 -55 222 -54 30 -83 34
-129 20z"/>
<path d="M2550 6368 c-64 -33 -90 -76 -90 -150 0 -69 21 -117 74 -168 34 -32
42 -35 109 -38 118 -6 235 51 253 123 15 58 -45 158 -128 215 -65 45 -153 52
-218 18z"/>
<path d="M4450 6363 c-19 -10 -41 -31 -48 -46 -12 -25 -12 -35 4 -75 22 -58
102 -139 169 -172 44 -22 63 -25 160 -25 99 0 115 3 155 25 36 20 46 31 48 56
4 41 -41 97 -127 155 -122 83 -286 120 -361 82z"/>
<path d="M5822 6325 c-89 -20 -198 -76 -260 -134 -47 -43 -53 -53 -50 -83 3
-29 10 -36 60 -61 34 -18 80 -31 116 -34 52 -5 67 -2 124 26 147 70 245 207
195 275 -17 24 -106 29 -185 11z"/>
<path d="M1968 6116 c-20 -7 -43 -20 -51 -28 -93 -92 121 -268 326 -268 86 0
143 17 197 60 38 30 56 68 45 98 -8 25 -82 76 -145 100 -127 50 -292 67 -372
38z"/>
<path d="M4005 6088 c-76 -27 -86 -75 -27 -137 72 -75 226 -131 363 -131 93 0
141 17 181 63 36 42 36 79 -1 110 -38 31 -144 74 -233 92 -79 17 -238 19 -283
3z"/>
<path d="M3105 6003 c-148 -13 -321 -65 -484 -145 -107 -53 -135 -72 -202
-137 -88 -87 -108 -131 -89 -200 21 -79 123 -151 223 -158 84 -6 145 17 312
117 155 93 236 127 343 140 243 32 381 134 326 241 -56 110 -213 162 -429 142z"/>
<path d="M5090 6003 c-88 -11 -268 -57 -346 -89 -224 -90 -290 -209 -181 -328
66 -72 169 -100 305 -85 91 10 95 11 213 65 115 53 149 60 389 78 215 17 275
29 313 64 63 59 6 173 -118 235 -96 47 -166 59 -360 62 -99 2 -196 1 -215 -2z"/>
<path d="M1838 5745 c-162 -26 -289 -85 -273 -126 34 -89 499 -121 631 -44 79
46 83 123 10 159 -52 25 -245 31 -368 11z"/>
<path d="M6443 5231 c-33 -24 -43 -39 -52 -78 -28 -115 47 -256 167 -315 38
-19 63 -23 132 -23 192 0 270 84 206 220 -59 125 -216 225 -354 225 -49 0 -66
-5 -99 -29z"/>
<path d="M7354 5219 c-193 -36 -365 -269 -266 -361 61 -58 239 -83 311 -44 46
25 63 42 101 105 42 68 53 174 23 230 -33 62 -89 85 -169 70z"/>
<path d="M5785 5026 c-42 -16 -75 -48 -75 -72 0 -109 264 -285 449 -301 140
-12 284 50 284 121 0 70 -160 176 -348 231 -113 33 -252 42 -310 21z"/>
<path d="M4360 4879 c-42 -13 -95 -61 -121 -111 -64 -125 -2 -305 116 -338 25
-7 80 -10 132 -8 109 5 158 26 191 83 19 34 22 50 19 110 -2 45 -11 85 -25
111 -55 107 -209 183 -312 153z"/>
<path d="M6845 4719 c-198 -41 -388 -120 -491 -203 -167 -137 -188 -266 -62
-382 151 -139 362 -167 551 -72 21 10 73 51 117 91 90 84 123 98 393 167 262
67 310 106 257 210 -24 47 -104 113 -175 146 -28 13 -87 33 -130 44 -107 27
-330 26 -460 -1z"/>
<path d="M3615 4705 c-16 -7 -43 -27 -60 -44 -25 -27 -29 -39 -29 -85 1 -73
35 -137 114 -216 85 -85 156 -120 242 -119 35 0 77 6 93 12 100 39 164 122
145 187 -15 54 -55 105 -117 152 -146 110 -297 154 -388 113z"/>
<path d="M5555 4634 c-11 -2 -43 -9 -71 -14 -29 -6 -65 -23 -84 -38 -27 -24
-32 -33 -26 -55 16 -66 136 -148 266 -181 87 -22 245 -38 308 -31 114 14 168
54 179 133 7 53 -17 98 -65 118 -93 41 -216 65 -352 69 -74 2 -144 2 -155 -1z"/>
<path d="M4505 4335 c-283 -62 -570 -259 -673 -461 -34 -67 -48 -153 -33 -207
31 -110 145 -202 302 -242 148 -39 251 8 381 174 72 91 155 177 203 211 22 15
72 39 110 53 214 78 295 148 295 257 0 37 -6 47 -52 94 -93 92 -217 137 -378
135 -52 -1 -122 -7 -155 -14z"/>
<path d="M3160 4291 c-184 -31 -213 -140 -65 -244 147 -102 421 -149 547 -94
62 28 114 83 123 129 17 89 -46 133 -280 198 -50 14 -265 21 -325 11z"/>
<path d="M8685 3821 c-58 -26 -79 -72 -73 -153 7 -89 47 -166 128 -252 95
-100 175 -139 285 -140 104 -1 168 18 216 64 33 31 39 44 39 76 0 64 -45 140
-135 229 -89 89 -195 152 -301 179 -79 20 -110 20 -159 -3z"/>
<path d="M9667 3826 c-127 -46 -217 -165 -232 -307 -8 -73 6 -118 49 -158 39
-37 161 -73 246 -74 119 -1 167 33 202 146 27 91 22 180 -15 262 -34 73 -60
102 -112 126 -47 22 -86 23 -138 5z"/>
<path d="M3330 3814 c-171 -31 -342 -104 -418 -177 -52 -51 -53 -81 -4 -113
130 -88 652 -30 755 84 46 50 21 157 -45 196 -44 26 -176 30 -288 10z"/>
<path d="M8005 3501 c-177 -46 -126 -180 125 -331 223 -134 419 -171 554 -104
160 81 150 172 -31 282 -155 93 -350 152 -518 158 -55 2 -113 0 -130 -5z"/>
<path d="M6353 3213 c-19 -10 -42 -36 -60 -67 -26 -47 -28 -60 -28 -151 1
-110 5 -122 77 -230 71 -107 153 -144 292 -131 104 10 143 23 184 61 37 33 37
34 37 117 0 75 -3 90 -37 158 -55 112 -128 180 -247 231 -77 33 -166 38 -218
12z"/>
<path d="M9360 3180 c-246 -57 -431 -154 -563 -293 -84 -89 -112 -152 -112
-252 0 -59 5 -89 19 -115 87 -162 330 -300 525 -300 145 0 292 89 355 214 53
104 138 159 374 240 198 67 268 109 281 169 23 100 -143 248 -359 319 -89 29
-106 31 -265 34 -142 3 -184 0 -255 -16z"/>
<path d="M7869 2980 c-118 -19 -209 -64 -224 -111 -10 -31 24 -86 79 -128 128
-99 325 -154 551 -154 189 0 270 48 266 157 -3 97 -52 157 -154 187 -152 46
-395 69 -518 49z"/>
<path d="M5575 2956 c-17 -7 -44 -28 -59 -47 -25 -30 -28 -39 -24 -94 6 -85
46 -159 137 -254 79 -82 184 -156 261 -184 65 -24 170 -22 221 4 40 20 92 71
116 113 18 31 16 112 -4 154 -48 100 -256 249 -424 302 -71 23 -179 26 -224 6z"/>
<path d="M6798 2544 c-178 -32 -385 -148 -514 -287 -79 -86 -96 -108 -142
-187 -135 -237 -112 -467 64 -618 65 -56 191 -118 288 -142 218 -55 306 3 431
280 104 232 140 276 295 355 166 85 240 170 240 275 0 63 -24 111 -82 166 -89
84 -212 144 -338 164 -84 13 -147 11 -242 -6z"/>
<path d="M5220 2394 c-193 -35 -270 -112 -209 -210 90 -147 389 -263 644 -252
88 4 108 8 155 34 86 46 132 134 111 212 -33 120 -257 211 -536 217 -77 2
-151 2 -165 -1z"/>
<path d="M5625 1793 c-101 -15 -258 -64 -338 -104 -74 -38 -183 -118 -217
-160 -35 -45 -49 -104 -31 -138 37 -68 240 -99 451 -66 199 30 396 105 445
169 34 45 34 107 -1 172 -35 66 -50 82 -104 107 -45 21 -141 30 -205 20z"/>
</g>
</svg>
